<svg xmlns='http://www.w3.org/2000/svg' xmlns:xlink="http://www.w3.org/1999/xlink" height="500" width="500" viewBox="0 0 37 37">
<defs>
<g id="h1">  <polygon points = "-1,0 -1,-1 1,-1 1,0" fill="white" stroke="black" stroke-width=".05"/> </g>
<g id="v1">  <polygon points = "-1,-1 0,-1 0,1 -1,1" fill="white" stroke="black" stroke-width=".05"/> </g>
<g id="h2">  <polygon points = "-1,0 -1,-1 1,-1 1,0" fill="white" stroke="black" stroke-width=".05"/> </g>
<g id="v2">  <polygon points = "-1,-1 0,-1 0,1 -1,1" fill="white" stroke="black" stroke-width=".05"/> </g>
</defs>
<use xlink:href = "#v1" x = "18" y = "3"/>
<use xlink:href = "#v2" x = "19" y = "3"/>
<use xlink:href = "#v1" x = "17" y = "4"/>
<use xlink:href = "#v2" x = "20" y = "4"/>
<use xlink:href = "#v1" x = "16" y = "5"/>
<use xlink:href = "#v1" x = "18" y = "5"/>
<use xlink:href = "#v2" x = "19" y = "5"/>
<use xlink:href = "#v2" x = "21" y = "5"/>
<use xlink:href = "#v1" x = "15" y = "6"/>
<use xlink:href = "#v1" x = "17" y = "6"/>
<use xlink:href = "#v2" x = "20" y = "6"/>
<use xlink:href = "#v2" x = "22" y = "6"/>
<use xlink:href = "#v1" x = "14" y = "7"/>
<use xlink:href = "#v1" x = "16" y = "7"/>
<use xlink:href = "#v1" x = "18" y = "7"/>
<use xlink:href = "#v2" x = "19" y = "7"/>
<use xlink:href = "#v2" x = "21" y = "7"/>
<use xlink:href = "#v2" x = "23" y = "7"/>
<use xlink:href = "#v1" x = "13" y = "8"/>
<use xlink:href = "#v1" x = "15" y = "8"/>
<use xlink:href = "#v1" x = "17" y = "8"/>
<use xlink:href = "#v2" x = "20" y = "8"/>
<use xlink:href = "#v2" x = "22" y = "8"/>
<use xlink:href = "#v2" x = "24" y = "8"/>
<use xlink:href = "#v1" x = "12" y = "9"/>
<use xlink:href = "#v1" x = "14" y = "9"/>
<use xlink:href = "#v1" x = "16" y = "9"/>
<use xlink:href = "#v1" x = "18" y = "9"/>
<use xlink:href = "#v2" x = "19" y = "9"/>
<use xlink:href = "#v2" x = "21" y = "9"/>
<use xlink:href = "#v2" x = "23" y = "9"/>
<use xlink:href = "#v2" x = "25" y = "9"/>
<use xlink:href = "#v1" x = "11" y = "10"/>
<use xlink:href = "#v1" x = "13" y = "10"/>
<use xlink:href = "#v1" x = "15" y = "10"/>
<use xlink:href = "#v1" x = "17" y = "10"/>
<use xlink:href = "#v2" x = "20" y = "10"/>
<use xlink:href = "#v2" x = "22" y = "10"/>
<use xlink:href = "#v2" x = "24" y = "10"/>
<use xlink:href = "#v2" x = "26" y = "10"/>
<use xlink:href = "#v1" x = "10" y = "11"/>
<use xlink:href = "#v1" x = "12" y = "11"/>
<use xlink:href = "#v1" x = "14" y = "11"/>
<use xlink:href = "#v1" x = "16" y = "11"/>
<use xlink:href = "#v1" x = "18" y = "11"/>
<use xlink:href = "#v2" x = "19" y = "11"/>
<use xlink:href = "#v2" x = "21" y = "11"/>
<use xlink:href = "#v2" x = "23" y = "11"/>
<use xlink:href = "#v2" x = "25" y = "11"/>
<use xlink:href = "#v2" x = "27" y = "11"/>
<use xlink:href = "#v1" x = "9" y = "12"/>
<use xlink:href = "#v1" x = "11" y = "12"/>
<use xlink:href = "#v1" x = "13" y = "12"/>
<use xlink:href = "#v1" x = "15" y = "12"/>
<use xlink:href = "#v1" x = "17" y = "12"/>
<use xlink:href = "#v2" x = "20" y = "12"/>
<use xlink:href = "#v2" x = "22" y = "12"/>
<use xlink:href = "#v2" x = "24" y = "12"/>
<use xlink:href = "#v2" x = "26" y = "12"/>
<use xlink:href = "#v2" x = "28" y = "12"/>
<use xlink:href = "#v1" x = "8" y = "13"/>
<use xlink:href = "#v1" x = "10" y = "13"/>
<use xlink:href = "#v1" x = "12" y = "13"/>
<use xlink:href = "#v1" x = "14" y = "13"/>
<use xlink:href = "#v1" x = "16" y = "13"/>
<use xlink:href = "#v1" x = "18" y = "13"/>
<use xlink:href = "#v2" x = "19" y = "13"/>
<use xlink:href = "#v2" x = "21" y = "13"/>
<use xlink:href = "#v2" x = "23" y = "13"/>
<use xlink:href = "#v2" x = "25" y = "13"/>
<use xlink:href = "#v2" x = "27" y = "13"/>
<use xlink:href = "#v2" x = "29" y = "13"/>
<use xlink:href = "#v1" x = "7" y = "14"/>
<use xlink:href = "#v1" x = "9" y = "14"/>
<use xlink:href = "#v1" x = "11" y = "14"/>
<use xlink:href = "#v1" x = "13" y = "14"/>
<use xlink:href = "#v1" x = "15" y = "14"/>
<use xlink:href = "#v1" x = "17" y = "14"/>
<use xlink:href = "#v2" x = "20" y = "14"/>
<use xlink:href = "#v2" x = "22" y = "14"/>
<use xlink:href = "#v2" x = "24" y = "14"/>
<use xlink:href = "#v2" x = "26" y = "14"/>
<use xlink:href = "#v2" x = "28" y = "14"/>
<use xlink:href = "#v2" x = "30" y = "14"/>
<use xlink:href = "#v1" x = "6" y = "15"/>
<use xlink:href = "#v1" x = "8" y = "15"/>
<use xlink:href = "#v1" x = "10" y = "15"/>
<use xlink:href = "#v1" x = "12" y = "15"/>
<use xlink:href = "#v1" x = "14" y = "15"/>
<use xlink:href = "#v1" x = "16" y = "15"/>
<use xlink:href = "#v1" x = "18" y = "15"/>
<use xlink:href = "#v2" x = "19" y = "15"/>
<use xlink:href = "#v2" x = "21" y = "15"/>
<use xlink:href = "#v2" x = "23" y = "15"/>
<use xlink:href = "#v2" x = "25" y = "15"/>
<use xlink:href = "#v2" x = "27" y = "15"/>
<use xlink:href = "#v2" x = "29" y = "15"/>
<use xlink:href = "#v2" x = "31" y = "15"/>
<use xlink:href = "#v1" x = "5" y = "16"/>
<use xlink:href = "#v1" x = "7" y = "16"/>
<use xlink:href = "#v1" x = "9" y = "16"/>
<use xlink:href = "#v1" x = "11" y = "16"/>
<use xlink:href = "#v1" x = "13" y = "16"/>
<use xlink:href = "#v1" x = "15" y = "16"/>
<use xlink:href = "#v1" x = "17" y = "16"/>
<use xlink:href = "#v2" x = "20" y = "16"/>
<use xlink:href = "#v2" x = "22" y = "16"/>
<use xlink:href = "#v2" x = "24" y = "16"/>
<use xlink:href = "#v2" x = "26" y = "16"/>
<use xlink:href = "#v2" x = "28" y = "16"/>
<use xlink:href = "#v2" x = "30" y = "16"/>
<use xlink:href = "#v2" x = "32" y = "16"/>
<use xlink:href = "#v1" x = "4" y = "17"/>
<use xlink:href = "#v1" x = "6" y = "17"/>
<use xlink:href = "#v1" x = "8" y = "17"/>
<use xlink:href = "#v1" x = "10" y = "17"/>
<use xlink:href = "#v1" x = "12" y = "17"/>
<use xlink:href = "#v1" x = "14" y = "17"/>
<use xlink:href = "#v1" x = "16" y = "17"/>
<use xlink:href = "#v1" x = "18" y = "17"/>
<use xlink:href = "#v2" x = "19" y = "17"/>
<use xlink:href = "#v2" x = "21" y = "17"/>
<use xlink:href = "#v2" x = "23" y = "17"/>
<use xlink:href = "#v2" x = "25" y = "17"/>
<use xlink:href = "#v2" x = "27" y = "17"/>
<use xlink:href = "#v2" x = "29" y = "17"/>
<use xlink:href = "#v2" x = "31" y = "17"/>
<use xlink:href = "#v2" x = "33" y = "17"/>
<use xlink:href = "#v1" x = "3" y = "18"/>
<use xlink:href = "#v1" x = "5" y = "18"/>
<use xlink:href = "#v1" x = "7" y = "18"/>
<use xlink:href = "#v1" x = "9" y = "18"/>
<use xlink:href = "#v1" x = "11" y = "18"/>
<use xlink:href = "#v1" x = "13" y = "18"/>
<use xlink:href = "#v1" x = "15" y = "18"/>
<use xlink:href = "#v1" x = "17" y = "18"/>
<use xlink:href = "#v2" x = "20" y = "18"/>
<use xlink:href = "#v2" x = "22" y = "18"/>
<use xlink:href = "#v2" x = "24" y = "18"/>
<use xlink:href = "#v2" x = "26" y = "18"/>
<use xlink:href = "#v2" x = "28" y = "18"/>
<use xlink:href = "#v2" x = "30" y = "18"/>
<use xlink:href = "#v2" x = "32" y = "18"/>
<use xlink:href = "#v2" x = "34" y = "18"/>
<use xlink:href = "#v1" x = "4" y = "19"/>
<use xlink:href = "#v1" x = "6" y = "19"/>
<use xlink:href = "#v1" x = "8" y = "19"/>
<use xlink:href = "#v1" x = "10" y = "19"/>
<use xlink:href = "#v1" x = "12" y = "19"/>
<use xlink:href = "#v1" x = "14" y = "19"/>
<use xlink:href = "#v1" x = "16" y = "19"/>
<use xlink:href = "#v1" x = "18" y = "19"/>
<use xlink:href = "#v2" x = "19" y = "19"/>
<use xlink:href = "#v2" x = "21" y = "19"/>
<use xlink:href = "#v2" x = "23" y = "19"/>
<use xlink:href = "#v2" x = "25" y = "19"/>
<use xlink:href = "#v2" x = "27" y = "19"/>
<use xlink:href = "#v2" x = "29" y = "19"/>
<use xlink:href = "#v2" x = "31" y = "19"/>
<use xlink:href = "#v2" x = "33" y = "19"/>
<use xlink:href = "#v1" x = "5" y = "20"/>
<use xlink:href = "#v1" x = "7" y = "20"/>
<use xlink:href = "#v1" x = "9" y = "20"/>
<use xlink:href = "#v1" x = "11" y = "20"/>
<use xlink:href = "#v1" x = "13" y = "20"/>
<use xlink:href = "#v1" x = "15" y = "20"/>
<use xlink:href = "#v1" x = "17" y = "20"/>
<use xlink:href = "#v2" x = "20" y = "20"/>
<use xlink:href = "#v2" x = "22" y = "20"/>
<use xlink:href = "#v2" x = "24" y = "20"/>
<use xlink:href = "#v2" x = "26" y = "20"/>
<use xlink:href = "#v2" x = "28" y = "20"/>
<use xlink:href = "#v2" x = "30" y = "20"/>
<use xlink:href = "#v2" x = "32" y = "20"/>
<use xlink:href = "#v1" x = "6" y = "21"/>
<use xlink:href = "#v1" x = "8" y = "21"/>
<use xlink:href = "#v1" x = "10" y = "21"/>
<use xlink:href = "#v1" x = "12" y = "21"/>
<use xlink:href = "#v1" x = "14" y = "21"/>
<use xlink:href = "#v1" x = "16" y = "21"/>
<use xlink:href = "#v1" x = "18" y = "21"/>
<use xlink:href = "#v2" x = "19" y = "21"/>
<use xlink:href = "#v2" x = "21" y = "21"/>
<use xlink:href = "#v2" x = "23" y = "21"/>
<use xlink:href = "#v2" x = "25" y = "21"/>
<use xlink:href = "#v2" x = "27" y = "21"/>
<use xlink:href = "#v2" x = "29" y = "21"/>
<use xlink:href = "#v2" x = "31" y = "21"/>
<use xlink:href = "#v1" x = "7" y = "22"/>
<use xlink:href = "#v1" x = "9" y = "22"/>
<use xlink:href = "#v1" x = "11" y = "22"/>
<use xlink:href = "#v1" x = "13" y = "22"/>
<use xlink:href = "#v1" x = "15" y = "22"/>
<use xlink:href = "#v1" x = "17" y = "22"/>
<use xlink:href = "#v2" x = "20" y = "22"/>
<use xlink:href = "#v2" x = "22" y = "22"/>
<use xlink:href = "#v2" x = "24" y = "22"/>
<use xlink:href = "#v2" x = "26" y = "22"/>
<use xlink:href = "#v2" x = "28" y = "22"/>
<use xlink:href = "#v2" x = "30" y = "22"/>
<use xlink:href = "#v1" x = "8" y = "23"/>
<use xlink:href = "#v1" x = "10" y = "23"/>
<use xlink:href = "#v1" x = "12" y = "23"/>
<use xlink:href = "#v1" x = "14" y = "23"/>
<use xlink:href = "#v1" x = "16" y = "23"/>
<use xlink:href = "#v1" x = "18" y = "23"/>
<use xlink:href = "#v2" x = "19" y = "23"/>
<use xlink:href = "#v2" x = "21" y = "23"/>
<use xlink:href = "#v2" x = "23" y = "23"/>
<use xlink:href = "#v2" x = "25" y = "23"/>
<use xlink:href = "#v2" x = "27" y = "23"/>
<use xlink:href = "#v2" x = "29" y = "23"/>
<use xlink:href = "#v1" x = "9" y = "24"/>
<use xlink:href = "#v1" x = "11" y = "24"/>
<use xlink:href = "#v1" x = "13" y = "24"/>
<use xlink:href = "#v1" x = "15" y = "24"/>
<use xlink:href = "#v1" x = "17" y = "24"/>
<use xlink:href = "#v2" x = "20" y = "24"/>
<use xlink:href = "#v2" x = "22" y = "24"/>
<use xlink:href = "#v2" x = "24" y = "24"/>
<use xlink:href = "#v2" x = "26" y = "24"/>
<use xlink:href = "#v2" x = "28" y = "24"/>
<use xlink:href = "#v1" x = "10" y = "25"/>
<use xlink:href = "#v1" x = "12" y = "25"/>
<use xlink:href = "#v1" x = "14" y = "25"/>
<use xlink:href = "#v1" x = "16" y = "25"/>
<use xlink:href = "#v1" x = "18" y = "25"/>
<use xlink:href = "#v2" x = "19" y = "25"/>
<use xlink:href = "#v2" x = "21" y = "25"/>
<use xlink:href = "#v2" x = "23" y = "25"/>
<use xlink:href = "#v2" x = "25" y = "25"/>
<use xlink:href = "#v2" x = "27" y = "25"/>
<use xlink:href = "#v1" x = "11" y = "26"/>
<use xlink:href = "#v1" x = "13" y = "26"/>
<use xlink:href = "#v1" x = "15" y = "26"/>
<use xlink:href = "#v1" x = "17" y = "26"/>
<use xlink:href = "#v2" x = "20" y = "26"/>
<use xlink:href = "#v2" x = "22" y = "26"/>
<use xlink:href = "#v2" x = "24" y = "26"/>
<use xlink:href = "#v2" x = "26" y = "26"/>
<use xlink:href = "#v1" x = "12" y = "27"/>
<use xlink:href = "#v1" x = "14" y = "27"/>
<use xlink:href = "#v1" x = "16" y = "27"/>
<use xlink:href = "#v1" x = "18" y = "27"/>
<use xlink:href = "#v2" x = "19" y = "27"/>
<use xlink:href = "#v2" x = "21" y = "27"/>
<use xlink:href = "#v2" x = "23" y = "27"/>
<use xlink:href = "#v2" x = "25" y = "27"/>
<use xlink:href = "#v1" x = "13" y = "28"/>
<use xlink:href = "#v1" x = "15" y = "28"/>
<use xlink:href = "#v1" x = "17" y = "28"/>
<use xlink:href = "#v2" x = "20" y = "28"/>
<use xlink:href = "#v2" x = "22" y = "28"/>
<use xlink:href = "#v2" x = "24" y = "28"/>
<use xlink:href = "#v1" x = "14" y = "29"/>
<use xlink:href = "#v1" x = "16" y = "29"/>
<use xlink:href = "#v1" x = "18" y = "29"/>
<use xlink:href = "#v2" x = "19" y = "29"/>
<use xlink:href = "#v2" x = "21" y = "29"/>
<use xlink:href = "#v2" x = "23" y = "29"/>
<use xlink:href = "#v1" x = "15" y = "30"/>
<use xlink:href = "#v1" x = "17" y = "30"/>
<use xlink:href = "#v2" x = "20" y = "30"/>
<use xlink:href = "#v2" x = "22" y = "30"/>
<use xlink:href = "#v1" x = "16" y = "31"/>
<use xlink:href = "#v1" x = "18" y = "31"/>
<use xlink:href = "#v2" x = "19" y = "31"/>
<use xlink:href = "#v2" x = "21" y = "31"/>
<use xlink:href = "#v1" x = "17" y = "32"/>
<use xlink:href = "#v2" x = "20" y = "32"/>
<use xlink:href = "#v1" x = "18" y = "33"/>
<use xlink:href = "#v2" x = "19" y = "33"/>
</svg>